<?xml version="1.0" standalone="no"?>
<!DOCTYPE svg PUBLIC "-//W3C//DTD SVG 20010904//EN"
 "http://www.w3.org/TR/2001/REC-SVG-20010904/DTD/svg10.dtd">
<svg version="1.0" xmlns="http://www.w3.org/2000/svg"
 width="847.000000pt" height="847.000000pt" viewBox="0 0 847.000000 847.000000"
 preserveAspectRatio="xMidYMid meet">
<metadata>
Created by potrace 1.14, written by Peter Selinger 2001-2017
</metadata>
<g transform="translate(0.000000,847.000000) scale(0.100000,-0.100000)"
fill="#000000" stroke="none">
<path d="M4976 7372 c-3 -5 -42 -9 -88 -11 -157 -5 -173 -6 -185 -14 -6 -4
-14 -1 -16 5 -4 10 -6 10 -6 0 -1 -7 -5 -10 -11 -7 -5 3 -10 4 -10 0 0 -3 10
-10 23 -15 21 -8 21 -9 2 -9 -12 -1 -27 5 -33 11 -10 10 -15 10 -21 -1 -5 -8
-7 -19 -5 -26 3 -7 -4 -11 -18 -10 -13 1 -33 -2 -45 -6 -15 -5 -23 -5 -23 2 0
6 -6 7 -12 2 -7 -4 -42 -8 -78 -10 -112 -4 -245 -11 -250 -13 -19 -7 -78 -4
-89 5 -11 7 -13 7 -7 -3 6 -9 1 -11 -18 -8 -17 3 -26 -1 -29 -12 -4 -16 -5
-15 -6 0 -1 11 -6 15 -16 11 -14 -5 -14 -7 0 -23 12 -14 13 -20 4 -26 -8 -4
-10 -3 -5 4 7 12 -51 48 -61 38 -3 -3 5 -9 17 -14 14 -5 24 -18 25 -30 1 -17
-1 -19 -12 -11 -7 6 -13 8 -13 4 0 -4 -7 -2 -15 5 -13 11 -14 10 -10 -2 4 -11
-4 -14 -37 -15 -24 -1 -43 -2 -43 -3 0 -1 -8 -3 -17 -5 -10 -2 -18 1 -18 6 0
6 -6 7 -12 2 -7 -4 -26 -9 -43 -10 -16 -1 -64 -4 -105 -7 -41 -3 -79 -5 -84
-5 -5 -1 -3 -8 4 -16 11 -13 10 -14 -4 -9 -9 3 -16 12 -16 20 0 17 -26 8 -34
-11 -3 -8 0 -17 6 -21 6 -4 8 -3 4 4 -3 6 -1 14 5 18 7 4 9 3 5 -4 -3 -5 0
-13 6 -15 10 -4 10 -6 0 -6 -7 -1 -10 -6 -6 -12 5 -8 1 -8 -14 0 -15 8 -21 8
-24 0 -2 -6 -21 -12 -43 -14 -22 -2 -40 -4 -40 -5 0 -3 -47 -8 -129 -13 -43
-3 -83 -10 -89 -16 -6 -6 -16 -11 -21 -11 -6 0 -4 5 4 10 8 5 11 10 5 10 -13
-1 -36 -19 -55 -45 -15 -20 -14 -20 8 -1 12 11 25 17 28 13 9 -8 -6 -28 -16
-22 -5 3 -12 0 -16 -6 -5 -9 -11 -7 -21 6 -11 16 -13 17 -13 3 0 -9 -5 -20
-12 -24 -7 -5 -8 -3 -3 6 6 9 4 11 -6 5 -15 -10 -29 -12 -99 -16 -25 -1 -51
-6 -57 -12 -9 -6 -13 -5 -13 3 0 9 -3 10 -13 1 -8 -6 -17 -8 -20 -4 -4 3 -7 1
-7 -6 0 -8 -8 -11 -19 -8 -14 3 -19 0 -16 -12 2 -10 -1 -24 -7 -32 -8 -12 -9
-11 -5 1 3 10 -2 16 -14 16 -13 0 -15 -3 -7 -13 11 -14 9 -15 -49 -15 -18 0
-33 -3 -33 -7 0 -3 -21 -7 -48 -8 -107 -6 -138 -9 -150 -17 -6 -4 -16 -5 -21
-1 -5 3 -13 0 -17 -6 -4 -8 -3 -9 4 -5 16 10 15 -6 0 -24 -7 -8 -3 -6 10 5 22
18 23 18 16 0 -6 -14 -4 -16 7 -10 8 5 11 4 6 -1 -4 -4 -20 -9 -35 -10 -15 -1
-27 -2 -27 -3 0 -4 -39 -12 -83 -16 -24 -2 -48 -7 -54 -11 -5 -4 -14 0 -19 7
-5 9 -9 10 -9 2 0 -6 -11 -10 -25 -8 -14 1 -25 -2 -25 -7 0 -6 -6 -8 -13 -5
-14 5 -17 -19 -4 -39 3 -6 1 -11 -6 -12 -7 0 -23 -3 -37 -6 -14 -4 -53 -10
-88 -15 -35 -6 -71 -16 -80 -23 -9 -7 -13 -8 -9 -2 3 6 0 11 -8 11 -8 0 -13
-3 -10 -5 3 -3 0 -11 -6 -18 -7 -8 -6 -14 2 -20 8 -4 9 -3 5 4 -4 7 -2 12 4
12 7 0 10 -6 7 -12 -2 -7 -10 -12 -16 -10 -7 1 -21 -3 -33 -9 -16 -9 -19 -8
-12 3 4 8 0 7 -12 -3 -10 -9 -27 -15 -37 -14 -9 2 -17 0 -17 -4 0 -3 -18 -6
-40 -6 -22 0 -40 -3 -40 -7 0 -5 -3 -7 -8 -7 -20 3 -32 -2 -32 -15 0 -21 -27
-40 -33 -24 -3 8 -6 6 -6 -6 -1 -16 -3 -17 -18 -5 -14 12 -16 12 -8 0 6 -11 4
-13 -7 -8 -9 3 -19 3 -23 -1 -4 -4 -11 -8 -16 -8 -5 -1 -11 -3 -14 -4 -8 -4
-17 -7 -52 -15 -30 -7 -39 -20 -34 -48 1 -5 -3 -6 -9 -2 -5 3 -10 2 -10 -4 0
-5 -11 -8 -25 -7 -13 2 -22 -1 -19 -5 3 -5 -5 -9 -18 -8 -36 1 -118 -22 -118
-32 0 -6 -6 -7 -12 -3 -7 4 -10 4 -6 -1 9 -10 -9 -45 -23 -45 -6 0 -7 6 -3 13
9 13 -26 -11 -38 -28 -5 -6 -8 -4 -8 5 0 11 -3 12 -8 3 -4 -6 -21 -14 -37 -17
-17 -2 -32 -5 -35 -6 -3 -1 -8 -2 -12 -1 -5 0 -7 -5 -5 -12 1 -6 -4 -11 -12
-9 -8 2 -11 -3 -8 -12 4 -9 3 -15 -1 -14 -14 4 -52 -14 -52 -24 0 -5 -6 -8
-12 -5 -7 2 -21 -2 -30 -11 -12 -10 -18 -11 -18 -4 0 7 -5 12 -11 12 -5 0 -7
-5 -3 -12 5 -7 2 -9 -9 -5 -12 4 -14 2 -10 -10 5 -12 2 -15 -10 -10 -11 4 -14
2 -11 -8 6 -15 -31 -39 -46 -30 -6 3 -10 2 -10 -4 0 -5 -10 -13 -22 -17 -12
-3 -32 -19 -46 -35 -13 -16 -30 -29 -38 -29 -8 0 -14 -4 -14 -10 0 -5 -7 -7
-15 -4 -8 4 -15 1 -15 -6 0 -6 -4 -8 -10 -5 -5 3 -10 1 -10 -5 0 -6 -5 -8 -10
-5 -6 4 -27 -12 -48 -34 -21 -23 -41 -41 -45 -41 -11 0 -47 -39 -47 -51 0 -5
-4 -8 -9 -4 -5 3 -25 -10 -44 -30 -19 -19 -37 -32 -40 -28 -4 3 -7 1 -7 -5 0
-17 -31 -44 -45 -39 -6 3 -12 -1 -12 -9 0 -7 5 -10 11 -7 6 4 5 -1 -3 -10 -15
-18 -26 -23 -16 -7 3 6 1 10 -4 10 -6 0 -11 -8 -12 -17 0 -15 -2 -15 -9 2 -5
11 -9 15 -9 9 -1 -6 -13 -17 -27 -24 -32 -18 -49 -46 -32 -56 7 -5 8 -3 3 6
-5 8 -4 11 3 6 6 -4 9 -13 5 -21 -6 -17 -20 -20 -25 -5 -2 6 -9 1 -16 -11 -8
-12 -9 -18 -3 -15 7 4 8 1 5 -8 -5 -14 -23 -21 -46 -17 -4 0 -5 -6 -2 -14 4
-8 1 -15 -6 -15 -6 0 -8 -4 -5 -10 3 -5 0 -10 -7 -10 -8 0 -15 -8 -16 -17 -5
-44 -10 -57 -28 -71 -12 -9 -14 -13 -4 -9 11 3 16 -2 17 -14 2 -24 -15 -35
-30 -20 -9 9 -8 11 6 6 9 -4 17 -3 17 3 0 6 -8 9 -17 8 -14 -2 -18 -13 -18
-44 0 -27 -3 -37 -10 -32 -7 6 -11 2 -11 -9 0 -12 5 -17 15 -13 9 3 12 1 8 -5
-10 -16 21 -43 39 -36 13 5 15 1 9 -17 -5 -15 -4 -20 4 -16 6 4 9 1 5 -7 -3
-8 1 -21 9 -28 7 -8 12 -20 9 -28 -3 -8 -1 -12 4 -9 5 3 19 -5 32 -18 12 -13
20 -24 17 -24 -4 0 1 -7 9 -16 9 -8 14 -20 11 -25 -4 -5 1 -6 9 -3 12 4 16 0
16 -16 0 -16 4 -20 16 -16 8 3 12 2 9 -4 -3 -6 -1 -10 4 -10 6 0 11 -7 11 -16
0 -8 3 -13 8 -11 13 8 32 -19 32 -45 0 -6 3 -9 6 -6 8 9 55 -42 57 -62 1 -10
4 -17 9 -14 4 2 12 -6 19 -18 7 -13 18 -27 26 -31 7 -5 11 -11 9 -15 -3 -4 3
-8 12 -9 15 -1 49 -9 62 -13 3 -1 13 -2 23 -1 9 1 17 -3 17 -10 0 -7 4 -8 13
-2 11 8 48 10 62 3 14 -7 31 -5 44 4 12 9 13 7 7 -8 -7 -20 -7 -20 15 0 12 10
19 14 16 8 -4 -7 0 -14 8 -17 10 -4 12 -1 8 11 -6 15 -5 15 11 2 22 -17 49
-23 40 -8 -4 6 -2 8 4 4 6 -3 13 -2 17 4 4 6 11 8 16 4 5 -3 7 -10 3 -15 -3
-6 4 -13 16 -16 22 -6 22 -7 5 -20 -11 -7 -15 -13 -9 -13 15 0 35 16 33 26 -1
5 -1 16 0 24 1 12 3 12 12 -2 6 -11 16 -15 26 -11 15 6 16 5 3 -9 -11 -11 -17
-12 -22 -5 -4 7 -6 3 -6 -8 2 -18 9 -20 58 -20 30 1 61 4 67 8 6 4 14 1 17 -5
4 -7 4 -3 2 10 -2 12 0 20 5 16 5 -3 9 -11 9 -19 0 -7 10 -12 24 -11 13 0 22
4 19 9 -2 4 1 7 6 7 6 0 11 -4 11 -9 0 -5 10 -9 23 -9 61 -2 117 -8 117 -12 0
-3 39 -6 87 -8 50 -1 92 -7 101 -15 9 -6 13 -7 10 -2 -4 6 2 11 13 11 15 0 18
-5 13 -21 -6 -17 -4 -17 15 5 20 22 21 23 12 3 -9 -18 -7 -24 11 -37 20 -14
24 -14 39 0 15 13 16 13 15 -3 0 -10 4 -20 9 -22 29 -11 44 -80 16 -74 -6 2
-11 -2 -11 -7 0 -6 -9 -10 -21 -10 -12 0 -23 -8 -26 -20 -3 -11 -9 -18 -13
-15 -5 3 -11 -4 -15 -15 -3 -11 -10 -20 -14 -20 -8 0 -40 -27 -92 -76 -15 -14
-36 -26 -48 -27 -11 -1 -21 -4 -21 -8 0 -4 -10 -10 -22 -14 -13 -4 -26 -8 -30
-10 -5 -1 -13 -3 -20 -4 -6 0 -9 -4 -5 -7 8 -8 -54 -65 -64 -58 -4 2 -9 0 -11
-6 -1 -5 -15 -11 -30 -12 -16 -1 -28 -6 -28 -11 0 -4 -6 -5 -12 -1 -9 5 -9 2
1 -9 12 -15 11 -17 -3 -17 -9 0 -16 -4 -16 -9 0 -10 -54 -34 -76 -34 -8 0 -14
-4 -14 -8 0 -4 -9 -6 -20 -4 -11 2 -20 -1 -20 -7 0 -7 -4 -7 -13 1 -16 12 -28
5 -21 -13 9 -23 -55 -57 -131 -70 -35 -5 -55 -18 -55 -33 0 -10 -7 -14 -19
-10 -13 3 -18 0 -15 -8 3 -7 1 -16 -5 -20 -6 -3 -11 -1 -11 6 0 10 -3 10 -12
1 -7 -7 -22 -12 -34 -12 -13 0 -26 -5 -29 -10 -4 -6 -10 -8 -14 -6 -4 3 -25 0
-47 -6 -21 -6 -43 -11 -47 -10 -4 1 -3 -7 4 -19 8 -17 8 -20 -1 -14 -7 4 -15
3 -19 -3 -3 -6 -18 -13 -31 -15 -14 -3 -32 -8 -42 -12 -9 -3 -29 -8 -45 -9
-41 -4 -64 -16 -56 -30 11 -17 12 -37 2 -30 -5 3 -9 -5 -9 -16 0 -17 -4 -21
-17 -16 -17 6 -17 5 0 -8 16 -12 16 -14 2 -20 -9 -3 -13 -11 -9 -17 4 -8 3 -9
-5 -5 -9 6 -9 11 0 22 6 8 8 14 4 14 -9 0 -34 -31 -35 -43 0 -5 6 -5 12 -1 10
6 10 5 1 -8 -7 -8 -9 -19 -5 -23 4 -5 2 -5 -4 -2 -7 4 -15 -1 -19 -10 -3 -10
-1 -19 4 -21 6 -2 11 -13 11 -24 0 -10 7 -26 15 -35 8 -8 12 -20 8 -26 -3 -7
-3 -9 2 -5 12 11 35 -18 35 -46 0 -14 5 -26 10 -26 6 0 10 -11 10 -24 0 -16 7
-27 20 -31 11 -3 20 -11 20 -16 0 -5 4 -8 8 -6 4 1 26 -17 49 -39 23 -23 45
-39 48 -36 3 3 5 -1 5 -9 0 -10 3 -11 8 -2 5 8 17 6 45 -7 20 -10 37 -16 37
-14 0 7 53 -28 70 -46 8 -9 13 -11 10 -5 -3 6 3 2 14 -10 10 -11 20 -19 22
-17 12 7 33 -1 54 -20 14 -13 26 -22 28 -20 7 6 30 -26 24 -33 -4 -5 -2 -5 4
-2 16 9 98 -78 88 -94 -3 -5 0 -9 6 -9 6 0 8 -4 5 -10 -3 -5 1 -10 10 -10 9 0
13 -4 10 -10 -3 -5 1 -10 9 -10 9 0 16 -7 16 -16 0 -9 8 -23 17 -31 10 -8 12
-11 5 -8 -11 6 -11 3 -1 -13 7 -12 17 -18 21 -16 4 3 8 -2 8 -10 0 -8 9 -20
20 -26 11 -6 20 -17 20 -25 0 -8 5 -15 11 -15 5 0 7 -4 4 -10 -3 -5 -1 -10 4
-10 6 0 14 -18 17 -40 4 -22 12 -40 18 -40 6 0 6 -4 -2 -9 -11 -7 -10 -10 3
-15 9 -3 20 -4 25 -1 4 3 6 -5 2 -17 -3 -14 -2 -19 6 -14 8 5 12 -1 12 -18 0
-14 4 -27 9 -30 5 -4 12 -29 16 -56 4 -31 11 -48 17 -43 7 4 8 1 2 -8 -15 -24
-13 -37 6 -32 10 3 20 -2 24 -13 5 -14 4 -15 -9 -4 -13 11 -14 10 -9 -4 3 -9
13 -16 21 -16 13 0 13 -3 3 -15 -11 -13 -10 -14 4 -9 9 3 16 1 16 -5 0 -6 -6
-11 -12 -12 -7 0 -4 -4 7 -9 11 -5 14 -9 6 -9 -11 -1 -11 -4 -1 -16 7 -8 10
-21 7 -29 -3 -8 -1 -16 4 -18 6 -2 11 -20 12 -40 1 -23 5 -34 11 -30 6 3 5 -2
-2 -11 -12 -13 -10 -18 7 -29 12 -7 21 -16 21 -21 0 -4 -5 -5 -12 -1 -7 4 -8
3 -4 -4 4 -6 13 -9 21 -6 8 4 12 11 8 17 -4 6 -1 7 7 2 10 -6 8 -13 -11 -28
l-24 -20 25 8 c22 7 23 6 11 -8 -11 -14 -11 -18 1 -22 10 -4 14 -20 14 -46 -1
-23 2 -43 6 -45 3 -2 5 -15 3 -29 -1 -14 1 -25 5 -25 5 0 7 -8 6 -17 -2 -9 1
-35 6 -57 5 -23 9 -46 10 -53 1 -9 7 -9 21 -1 13 6 17 6 13 0 -3 -6 -3 -12 1
-15 5 -2 2 -2 -5 0 -7 1 -10 -2 -7 -7 3 -6 14 -10 23 -10 15 0 15 -2 2 -10
-10 -7 -11 -10 -2 -10 8 0 11 -11 9 -35 -3 -20 -1 -38 3 -40 5 -3 7 -21 6 -41
-1 -20 1 -37 5 -40 3 -2 5 -20 4 -40 -1 -27 5 -43 27 -66 29 -32 36 -44 16
-32 -7 4 -8 3 -4 -5 4 -6 11 -9 16 -6 5 3 11 1 14 -4 4 -5 1 -13 -4 -16 -8 -5
-6 -13 5 -25 9 -10 15 -21 14 -26 -1 -5 0 -11 1 -14 3 -9 11 -45 12 -57 1 -7
5 -10 10 -7 4 3 8 -2 8 -11 0 -11 5 -15 14 -12 10 4 13 1 9 -9 -3 -9 1 -14 13
-14 9 0 14 -3 11 -6 -3 -4 -1 -16 5 -28 7 -11 11 -25 10 -29 -1 -5 1 -6 5 -4
5 3 14 -1 21 -9 7 -8 10 -14 7 -14 -2 0 9 -13 25 -28 16 -16 27 -32 23 -35 -3
-4 -2 -7 4 -7 5 0 15 -12 21 -26 7 -14 17 -22 22 -19 6 3 10 1 10 -4 0 -6 9
-11 20 -11 11 0 20 -4 20 -10 0 -5 3 -9 8 -8 14 4 62 -34 55 -45 -3 -5 -1 -7
5 -3 6 3 13 2 17 -4 4 -7 13 -6 27 1 11 6 18 7 14 1 -7 -11 38 -23 109 -28 28
-2 58 -6 68 -8 9 -2 17 -1 17 2 0 4 31 7 70 6 44 0 70 3 70 10 1 6 1 85 2 176
0 91 4 174 8 186 5 11 3 28 -2 38 -8 15 -8 17 2 11 10 -6 12 -2 7 14 -5 19 -3
20 10 9 15 -12 15 -11 4 10 -6 12 -8 22 -4 21 15 -4 43 13 37 22 -3 5 1 9 8 9
9 0 9 3 -2 10 -9 6 -11 10 -3 10 7 0 10 7 7 15 -4 8 -2 15 3 15 5 0 8 17 7 37
0 21 3 46 7 55 6 10 5 19 -1 23 -5 3 -6 15 -1 28 4 12 7 33 7 47 -1 14 5 31
12 39 7 7 10 21 7 31 -3 11 1 20 11 24 14 5 15 4 4 -9 -7 -8 -8 -15 -2 -15 12
0 23 25 28 64 2 16 10 36 16 44 11 13 11 14 -1 7 -11 -6 -12 -5 -5 6 4 8 9 23
10 34 5 53 17 102 31 124 11 17 12 21 2 15 -11 -6 -12 -5 -2 8 7 8 10 18 6 22
-4 4 1 4 11 0 14 -5 17 -4 12 4 -4 8 0 12 11 12 14 0 15 2 4 9 -9 6 -10 11 -2
15 6 4 11 17 11 30 0 12 5 27 12 34 9 9 9 12 0 12 -8 0 -9 7 -1 27 6 16 12 39
13 53 4 37 24 80 36 80 6 0 8 5 5 10 -3 6 -1 10 4 10 6 0 11 9 11 20 0 11 4
20 10 20 5 0 9 3 8 8 -3 15 15 82 23 82 4 0 6 9 4 20 -2 11 0 20 6 20 5 0 9 5
9 11 0 7 10 20 22 30 11 11 18 22 15 25 -3 4 -1 16 5 28 7 11 13 23 13 26 9
36 19 67 26 75 4 6 7 12 8 15 0 19 15 39 25 33 6 -3 8 -3 4 1 -3 4 5 32 18 62
13 30 24 61 24 68 0 7 11 29 24 49 13 19 22 38 18 41 -3 3 0 6 6 6 15 0 52 77
52 106 0 13 5 26 10 29 6 3 10 0 10 -7 0 -9 3 -9 8 -2 4 6 70 11 177 12 363 4
485 7 485 12 0 3 35 6 77 7 50 1 79 6 84 15 7 11 9 10 9 -1 0 -11 3 -11 17 0
9 8 14 9 10 2 -8 -13 18 -12 30 2 4 4 2 5 -4 1 -19 -10 -16 -1 4 15 9 8 14 9
11 4 -4 -6 -3 -17 3 -25 7 -13 9 -12 9 2 0 9 5 20 12 24 7 5 8 3 3 -6 -6 -10
-4 -12 9 -7 10 4 19 7 22 7 2 0 1 8 -2 18 -5 14 -4 14 4 2 8 -10 8 -18 0 -27
-6 -8 -8 -16 -4 -20 3 -3 6 -1 6 6 0 7 5 9 12 5 7 -4 8 -3 4 5 -4 6 0 14 11
18 10 4 22 11 26 17 5 6 5 1 2 -11 -4 -14 -2 -23 4 -23 6 0 10 3 10 8 -3 20 3
32 17 32 9 0 13 -5 9 -12 -4 -7 -1 -6 7 2 7 8 24 16 38 17 14 1 57 5 95 8 39
4 81 8 95 9 17 2 24 8 22 19 -2 9 2 17 8 17 6 0 8 -4 5 -10 -3 -5 -2 -10 4
-10 5 0 13 5 17 12 5 8 11 6 19 -6 11 -15 13 -15 19 -1 4 11 2 14 -6 9 -7 -5
-8 -3 -4 5 6 9 13 8 29 -6 l21 -18 -18 30 -19 30 27 -25 c22 -20 29 -22 36
-10 5 8 6 19 3 25 -4 5 -3 7 2 3 4 -4 15 -2 24 5 14 10 14 10 3 -5 -10 -12
-10 -18 -1 -24 7 -4 10 -3 7 2 -3 5 0 15 8 22 8 7 14 9 14 4 0 -5 7 -9 15 -9
8 0 12 4 9 9 -3 4 12 9 33 9 80 3 93 5 104 16 6 6 18 9 25 6 18 -7 46 16 37
30 -3 6 -1 7 6 3 6 -4 9 -11 6 -16 -3 -5 -1 -12 5 -15 6 -4 9 -1 8 7 -2 7 3
12 11 10 8 -2 11 3 8 12 -5 13 -2 13 20 5 23 -8 24 -8 13 6 -11 13 -10 14 5 9
13 -5 16 -4 10 5 -6 10 -3 11 12 2 11 -6 24 -7 28 -3 3 4 11 8 16 8 5 1 10 2
12 4 2 1 28 6 77 13 8 2 21 6 28 10 6 5 16 5 22 2 6 -3 10 -1 10 6 0 8 4 8 15
-1 13 -11 14 -10 9 4 -6 15 11 22 40 17 5 -1 6 6 2 15 -5 14 -4 15 9 4 13 -10
19 -10 33 4 10 9 27 16 38 16 11 0 25 5 32 12 9 9 12 9 12 -1 0 -11 3 -11 15
-1 8 7 15 9 15 4 0 -4 5 -3 12 4 15 15 31 16 22 0 -5 -7 -3 -8 5 -4 7 5 10 15
6 25 -5 12 -4 13 6 4 10 -10 15 -9 25 4 10 15 14 16 30 3 10 -8 15 -10 12 -5
-3 6 6 19 21 30 20 15 23 15 12 2 -9 -12 -10 -17 -2 -17 6 0 14 7 17 15 4 8
11 12 16 9 6 -4 13 -2 17 4 4 7 16 13 26 15 11 2 28 7 37 11 9 4 25 9 35 11
10 1 17 8 15 16 -2 10 0 10 13 -1 14 -11 16 -11 13 1 -2 8 4 13 14 11 9 -1 20
3 24 9 5 8 3 9 -6 4 -8 -5 -11 -4 -7 3 4 5 16 8 27 5 11 -3 20 -1 20 5 0 6 8
9 18 7 9 -1 22 2 29 7 6 5 24 10 40 12 15 1 27 7 26 13 -1 5 9 9 22 7 23 -2
30 6 26 29 -1 5 3 6 9 2 5 -3 10 -1 10 4 0 6 5 11 11 11 5 0 7 -5 3 -11 -3 -6
5 -4 18 5 14 9 28 13 31 9 4 -3 7 -2 7 4 0 6 18 13 40 17 21 3 43 13 48 22 5
9 12 15 15 15 20 -3 28 0 22 8 -3 6 4 8 15 6 11 -2 18 0 15 6 -6 8 8 13 28 10
4 0 7 3 7 8 0 5 14 11 31 15 18 3 38 14 46 24 10 11 12 12 8 2 -4 -8 1 -6 9 4
9 11 16 16 16 11 0 -5 7 0 16 11 8 10 13 13 9 7 -3 -7 9 -3 28 10 19 12 33 25
30 29 -2 4 2 5 10 2 8 -3 17 2 21 12 5 14 9 14 23 3 9 -8 14 -9 10 -3 -8 14
20 27 36 17 7 -4 6 1 -2 10 -12 15 -12 17 4 11 14 -6 16 -4 10 7 -4 8 -5 11 0
7 4 -4 14 -3 22 3 7 6 13 8 13 3 0 -4 7 1 16 12 8 10 13 12 9 4 -4 -8 3 -4 14
9 13 14 21 18 21 10 0 -9 3 -10 8 -4 12 17 96 80 87 65 -5 -9 -4 -11 3 -6 7 4
12 14 12 22 0 8 5 12 11 9 6 -4 17 1 25 11 9 11 12 13 9 6 -6 -11 -3 -12 12
-3 11 6 23 7 27 3 4 -3 4 1 0 11 -4 12 -1 17 10 17 9 0 16 4 16 10 0 5 3 9 8
8 13 -4 72 39 64 47 -4 5 -1 5 5 1 7 -4 20 2 30 14 10 11 23 20 29 20 6 0 21
9 34 20 12 11 27 17 33 13 5 -3 7 -1 4 4 -4 6 0 14 9 17 8 3 12 11 8 17 -4 8
-3 9 4 5 7 -4 12 -2 12 5 0 8 4 8 15 -1 13 -11 14 -10 9 4 -4 11 -2 16 7 14 8
-2 13 3 11 10 -1 8 2 11 7 8 5 -4 20 4 33 17 13 13 30 21 37 19 8 -3 11 0 7 7
-4 6 -4 11 1 11 4 0 24 15 44 33 37 33 75 64 131 107 17 14 45 37 60 52 15 15
28 25 28 22 0 -3 7 1 15 10 8 8 15 20 15 26 0 6 5 8 10 5 6 -3 10 0 10 7 0 7
14 22 30 33 16 11 30 23 30 28 0 4 8 7 17 7 9 0 14 3 10 6 -8 8 16 33 26 27 4
-2 7 2 7 10 0 8 8 21 18 28 14 11 15 11 5 -1 -20 -22 -15 -32 5 -13 10 10 16
24 14 32 -4 9 -1 12 6 7 7 -4 12 -1 12 7 0 7 12 24 28 38 15 13 21 17 15 9
-20 -22 -15 -32 6 -12 10 9 18 20 17 24 -1 4 19 25 44 47 24 23 41 41 37 41
-4 0 -2 6 5 14 7 8 17 11 22 8 5 -3 6 0 2 6 -3 6 4 22 16 35 13 14 34 40 48
57 14 18 35 43 48 56 12 14 22 27 22 30 0 3 14 19 30 37 17 18 28 38 25 45 -2
6 3 12 12 12 9 0 14 2 11 5 -3 3 8 20 23 36 16 17 29 38 29 46 0 8 5 11 13 7
6 -4 9 -4 5 1 -9 10 19 65 33 65 6 0 7 5 4 10 -3 6 -1 10 4 10 6 0 11 6 11 14
0 8 6 21 13 28 11 12 16 28 19 66 1 6 5 12 9 12 5 0 6 6 3 14 -3 8 4 19 16 26
13 7 19 17 16 26 -3 8 -2 12 4 9 17 -10 33 79 32 180 0 55 -1 102 -2 105 -3 8
-7 24 -8 38 -1 7 -6 10 -12 7 -5 -3 -10 -1 -10 5 0 6 -5 8 -12 4 -7 -4 -8 -3
-4 5 4 6 0 14 -8 17 -9 3 -13 10 -10 15 3 5 -2 12 -10 15 -9 3 -13 10 -10 15
3 5 0 9 -7 9 -7 0 -10 3 -6 6 8 8 -18 34 -33 34 -6 0 -8 5 -5 10 3 6 -2 10
-11 10 -10 0 -15 3 -11 6 3 4 -1 13 -9 21 -8 8 -11 19 -8 25 4 6 3 9 -2 6 -5
-3 -17 3 -26 14 -10 10 -16 18 -13 18 3 0 -11 17 -32 39 -76 78 -108 116 -105
126 2 5 1 7 -3 3 -4 -4 -45 31 -92 78 -47 46 -89 82 -93 79 -5 -3 -20 6 -34
20 -14 14 -31 25 -37 25 -7 0 -10 3 -6 6 7 7 -46 54 -61 54 -5 0 -20 13 -33
30 -13 16 -32 30 -42 30 -10 0 -16 4 -13 8 2 4 -7 9 -22 10 -15 1 -28 7 -30
12 -2 6 -10 10 -17 10 -8 0 -19 9 -25 21 -11 20 -64 49 -103 56 -10 2 -28 10
-41 18 -12 8 -26 12 -30 8 -4 -4 -9 3 -13 15 -5 20 -15 26 -35 23 -5 0 -8 3
-8 7 0 4 -15 9 -32 10 -49 4 -67 7 -74 15 -4 3 -15 2 -25 -4 -13 -6 -19 -6
-19 1 0 5 -3 9 -7 9 -5 -1 -11 0 -15 1 -5 1 -11 3 -15 5 -5 1 -20 7 -35 13
-31 13 -38 24 -10 16 9 -3 4 3 -13 12 -16 10 -41 18 -55 20 -14 1 -25 3 -25 4
0 1 -20 3 -45 5 -71 4 -141 14 -152 21 -7 5 -8 2 -3 -5 6 -10 3 -11 -14 -2
-12 7 -26 9 -31 6 -6 -3 -10 -1 -10 5 0 6 -5 8 -11 5 -5 -4 -20 1 -31 12 -15
12 -19 13 -14 3 4 -8 -5 -1 -19 15 -15 17 -24 23 -19 15 7 -13 5 -13 -9 -2
-11 10 -57 14 -161 15 -80 1 -146 6 -146 11 0 5 -6 3 -13 -3 -8 -6 -17 -8 -21
-4 -8 8 -1026 11 -1026 3 0 -8 -134 -5 -147 3 -7 4 -14 4 -17 -1z m-326 -58
c0 -8 -5 -12 -10 -9 -6 4 -8 11 -5 16 9 14 15 11 15 -7z m-1740 -358 c0 -3 -4
-8 -10 -11 -5 -3 -10 -1 -10 4 0 6 5 11 10 11 6 0 10 -2 10 -4z m-620 -186 c0
-5 -5 -10 -11 -10 -5 0 -7 5 -4 10 3 6 8 10 11 10 2 0 4 -4 4 -10z m3517 -24
c-5 -11 -1 -13 13 -8 10 4 55 5 99 2 51 -3 81 -1 81 5 0 6 5 3 10 -5 8 -12 10
-12 10 -1 0 11 3 11 15 1 11 -9 15 -9 15 -1 0 7 5 9 12 5 15 -10 68 -11 68 -2
0 4 11 3 25 -2 18 -7 25 -6 25 3 0 7 3 8 8 2 8 -12 182 -14 182 -2 0 4 9 3 20
-3 11 -6 20 -7 20 -2 0 5 18 6 40 2 22 -4 40 -4 40 1 0 5 6 6 14 3 26 -10 116
-9 116 1 0 6 5 3 10 -5 9 -13 10 -13 10 0 0 13 1 13 10 0 9 -13 10 -13 10 0 0
12 2 12 9 2 7 -11 11 -11 24 2 14 14 16 14 22 -1 3 -10 9 -13 13 -8 9 13 75
13 85 0 6 -6 10 -6 14 3 2 6 10 9 16 5 7 -4 35 -9 62 -10 28 -1 68 -4 90 -7
22 -2 57 -5 78 -5 21 -1 36 -5 33 -9 -3 -5 1 -9 9 -9 8 0 15 3 15 7 0 3 9 6
20 6 11 0 20 -4 20 -9 0 -4 4 -6 8 -3 4 2 8 -4 8 -14 0 -10 -4 -17 -7 -14 -4
2 -10 1 -13 -4 -3 -5 7 -9 22 -9 15 0 35 -4 45 -8 12 -5 16 -3 14 6 -2 8 -2
11 0 6 3 -4 9 -5 14 -2 5 4 6 -2 2 -12 -6 -16 -5 -16 10 -4 14 11 17 11 17 0
0 -11 2 -11 10 1 5 8 10 10 10 5 0 -6 21 -12 48 -13 79 -5 108 -8 120 -16 7
-4 17 -4 22 -1 6 3 10 1 10 -5 0 -7 8 -9 21 -5 16 5 19 4 14 -6 -6 -9 -3 -11
8 -6 10 3 17 2 17 -4 0 -6 6 -7 13 -3 8 5 7 2 -2 -9 -8 -10 -11 -20 -7 -24 3
-3 6 -1 6 5 0 7 7 12 16 12 10 0 14 -6 11 -14 -4 -10 0 -12 15 -8 14 3 19 1
14 -6 -4 -7 -2 -12 4 -12 6 0 8 -4 5 -10 -4 -6 1 -7 11 -3 13 5 16 3 11 -10
-4 -11 -1 -15 13 -12 11 2 23 -1 26 -7 4 -7 2 -8 -4 -4 -18 11 -14 -5 6 -23
30 -27 17 -136 -13 -111 -10 9 -16 6 -25 -10 -6 -11 -8 -24 -5 -29 3 -5 -2
-16 -10 -24 -11 -12 -12 -17 -2 -20 7 -3 4 -6 -6 -6 -10 -1 -15 -5 -12 -11 3
-5 1 -10 -5 -10 -6 0 -9 -4 -6 -9 7 -11 -27 -51 -44 -51 -7 0 -10 -3 -7 -7 4
-3 -1 -12 -11 -20 -10 -9 -11 -12 -2 -7 11 6 10 2 -2 -13 -10 -11 -18 -23 -18
-26 0 -8 -36 -46 -47 -49 -5 -2 -7 -6 -6 -10 3 -8 -16 -34 -49 -69 -9 -9 -13
-21 -10 -25 4 -5 -1 -2 -11 5 -15 12 -17 12 -11 -4 5 -13 4 -16 -4 -11 -7 4
-12 1 -12 -9 0 -10 -5 -13 -12 -9 -8 5 -9 2 -5 -9 4 -12 1 -17 -11 -17 -15 0
-15 -2 -2 -10 10 -6 11 -10 3 -10 -7 0 -15 1 -17 3 -3 1 -16 -9 -30 -22 -19
-18 -23 -28 -15 -37 7 -8 6 -14 -2 -20 -8 -5 -9 -3 -4 6 5 8 3 11 -6 8 -8 -3
-13 -10 -12 -16 2 -7 -4 -9 -15 -5 -14 6 -15 4 -4 -9 10 -13 10 -18 1 -24 -8
-4 -9 -3 -5 4 4 7 0 12 -10 12 -10 0 -14 -3 -11 -7 4 -3 -7 -15 -24 -25 -25
-15 -29 -22 -19 -33 10 -12 8 -13 -9 -10 -16 3 -21 -1 -19 -13 2 -12 -4 -17
-19 -16 -19 1 -21 -2 -12 -17 8 -15 6 -17 -7 -12 -10 4 -15 2 -11 -3 3 -6 -4
-16 -16 -24 -21 -12 -21 -12 -7 6 8 10 -1 6 -20 -11 -47 -40 -82 -75 -76 -75
3 0 -6 -11 -20 -25 -14 -14 -29 -25 -34 -25 -6 0 -10 -6 -10 -14 0 -8 -9 -18
-20 -21 -11 -4 -18 -10 -15 -15 3 -4 -7 -11 -20 -14 -14 -4 -23 -10 -20 -15 2
-5 -7 -12 -21 -15 -15 -4 -24 -10 -20 -13 3 -3 -17 -23 -44 -43 -27 -20 -47
-39 -44 -42 7 -8 -68 -68 -78 -62 -4 3 -11 -2 -14 -11 -4 -9 -13 -14 -22 -10
-13 5 -13 3 -1 -12 8 -9 9 -14 3 -10 -7 4 -14 0 -18 -8 -3 -8 -15 -15 -26 -15
-11 0 -20 -5 -20 -11 0 -5 5 -7 12 -3 7 4 8 3 4 -5 -6 -9 -12 -9 -24 1 -10 7
-14 9 -10 4 13 -15 -11 -45 -31 -41 -13 2 -18 -1 -15 -10 3 -7 0 -16 -7 -21
-8 -5 -10 -3 -5 7 4 8 0 5 -8 -5 -9 -11 -16 -16 -16 -12 0 5 -17 -4 -37 -20
-20 -15 -33 -22 -29 -16 5 8 2 10 -8 6 -9 -3 -13 -10 -10 -15 7 -12 -44 -58
-73 -65 -13 -4 -20 -11 -16 -17 4 -6 0 -8 -10 -4 -11 4 -17 1 -17 -7 0 -8 -12
-21 -26 -31 -18 -12 -24 -13 -19 -4 3 8 0 6 -8 -3 -8 -10 -17 -15 -20 -11 -4
3 -9 -2 -13 -11 -3 -9 -11 -13 -16 -10 -6 4 -20 -4 -30 -17 -11 -13 -16 -18
-12 -10 5 9 3 12 -4 7 -7 -4 -12 -14 -12 -23 0 -10 -6 -13 -16 -9 -8 3 -13 2
-10 -3 7 -11 -61 -44 -74 -36 -6 4 -10 3 -9 -2 3 -20 -2 -34 -11 -28 -6 3 -14
-5 -20 -19 -5 -14 -12 -26 -15 -26 -4 0 -3 5 0 10 3 6 1 10 -4 10 -6 0 -11 -5
-11 -11 0 -5 -4 -7 -10 -4 -5 3 -10 1 -10 -5 0 -6 -5 -8 -10 -5 -6 3 -13 -1
-16 -10 -4 -9 -12 -14 -20 -11 -15 6 -37 -17 -27 -28 4 -4 -3 -9 -15 -13 -12
-3 -22 -9 -22 -14 0 -5 -9 -9 -19 -9 -11 0 -23 -4 -26 -10 -3 -5 -15 -10 -26
-10 -10 0 -19 -5 -19 -11 0 -5 -5 -7 -10 -4 -6 3 -13 -1 -16 -9 -3 -9 -10 -13
-15 -10 -8 5 -13 -10 -10 -29 1 -5 -4 -5 -10 -1 -6 3 -14 2 -18 -3 -3 -5 -27
-17 -52 -26 -27 -10 -51 -28 -59 -42 -7 -14 -22 -25 -32 -25 -10 0 -18 -4 -18
-8 0 -4 -8 -9 -17 -10 -15 -1 -51 -8 -60 -11 -2 -1 -5 0 -7 2 -2 1 -14 -10
-26 -25 -12 -16 -28 -28 -36 -28 -8 0 -14 -5 -14 -11 0 -5 -4 -7 -10 -4 -5 3
-10 1 -10 -4 0 -6 -3 -10 -7 -10 -22 4 -33 -2 -27 -13 5 -10 4 -10 -6 -1 -10
9 -16 8 -29 -6 -10 -10 -12 -11 -6 -1 8 13 8 13 -6 3 -9 -7 -19 -10 -23 -6 -4
4 -5 1 -1 -7 5 -15 -33 -51 -58 -57 -7 -1 -25 -5 -41 -8 -16 -3 -37 -10 -46
-15 -10 -5 -21 -6 -25 -2 -4 4 -5 -2 -3 -13 2 -12 -2 -19 -9 -17 -7 1 -13 -5
-13 -13 0 -8 -7 -16 -15 -16 -17 -2 -34 -5 -37 -9 -5 -3 -42 -10 -79 -13 -46
-5 -62 -15 -56 -36 3 -12 -2 -17 -16 -18 -11 -1 -23 -7 -27 -13 -4 -6 -22 -12
-41 -14 -19 -2 -41 -7 -50 -10 -9 -4 -20 -6 -25 -5 -14 3 -44 -12 -44 -23 0
-27 -52 -49 -150 -63 -25 -4 -51 -12 -59 -18 -8 -7 -12 -7 -9 -2 4 6 -2 11
-12 11 -10 0 -17 -3 -14 -7 2 -4 1 -9 -3 -12 -5 -2 -3 -2 4 -1 7 2 10 -3 7
-10 -6 -17 -52 -38 -65 -31 -5 4 -9 2 -9 -4 0 -5 -8 -8 -17 -6 -10 1 -22 0
-28 -3 -5 -3 -23 -7 -40 -9 -48 -6 -59 -8 -74 -17 -10 -7 -12 -6 -6 4 6 9 4
11 -4 6 -7 -5 -10 -14 -7 -22 3 -8 0 -11 -9 -7 -8 3 -12 10 -9 15 4 6 -5 2
-20 -7 -30 -20 -35 -31 -7 -16 10 6 21 7 25 4 11 -11 7 -19 -11 -21 -23 -2
-58 -10 -58 -12 0 -1 -11 -4 -25 -6 -14 -2 -46 -7 -71 -12 -25 -5 -55 -7 -67
-5 -12 1 -22 -1 -22 -6 0 -6 -12 -6 -31 -1 -25 8 -29 7 -19 -4 8 -11 7 -14 -7
-12 -10 0 -22 6 -26 11 -5 6 -7 4 -6 -5 4 -36 -1 -49 -16 -44 -8 4 -15 2 -15
-3 0 -5 -12 -8 -27 -8 -16 1 -32 -1 -37 -3 -8 -4 -117 -12 -223 -16 -24 0 -43
-5 -43 -9 0 -4 -9 -3 -20 3 -11 6 -24 8 -29 6 -8 -6 -23 16 -26 39 -2 19 18
68 37 89 10 12 25 28 33 37 8 9 15 20 15 26 0 5 9 18 20 28 11 10 17 21 15 26
-3 4 7 17 21 28 15 12 23 21 19 21 -5 0 2 8 13 19 12 10 22 21 22 25 0 6 46
72 60 86 19 19 50 72 50 86 0 10 5 14 15 10 9 -3 15 0 15 9 0 8 9 24 20 35 11
11 18 20 15 20 -9 0 27 50 62 86 18 19 33 38 33 42 0 4 10 19 23 34 12 14 28
35 36 47 8 11 18 18 23 15 5 -3 7 -1 6 4 -3 9 18 41 60 92 12 15 22 33 22 39
0 6 4 11 9 11 5 0 11 10 15 23 3 12 18 36 34 54 16 17 51 58 77 91 26 34 54
63 62 67 9 3 13 8 10 11 -5 5 34 67 53 84 4 3 21 30 39 60 19 30 45 65 58 78
13 12 21 22 17 22 -4 0 1 8 12 19 30 29 54 60 54 70 0 5 7 12 16 15 8 3 12 10
9 16 -3 5 -2 10 3 10 5 0 12 8 14 18 3 9 6 22 8 27 1 6 13 20 26 32 13 12 24
25 24 28 0 3 14 19 30 35 17 17 27 30 23 30 -4 0 8 15 25 33 18 18 29 36 26
40 -4 4 -3 7 3 7 5 0 20 23 33 50 13 28 27 50 32 50 5 0 12 10 17 23 10 25 80
129 93 138 5 3 10 16 11 27 1 12 4 22 7 22 11 0 11 139 0 160 -6 12 -14 19
-17 16 -7 -7 -33 20 -33 35 0 7 -3 10 -6 6 -7 -7 -34 15 -28 24 2 3 -16 16
-39 29 -23 13 -52 34 -65 47 -13 13 -37 30 -55 39 -18 9 -36 23 -40 31 -5 7
-12 11 -17 8 -5 -3 -11 4 -15 15 -3 11 -13 20 -21 20 -8 0 -14 5 -14 11 0 5
-4 8 -9 5 -5 -3 -12 1 -15 9 -3 8 -9 15 -13 14 -22 -4 -43 3 -60 19 -10 9 -12
13 -3 7 11 -7 10 -4 -3 11 -10 13 -28 21 -45 20 -15 -1 -33 3 -41 9 -11 8 -13
6 -9 -6 4 -9 1 -16 -8 -16 -7 0 -11 4 -8 9 3 4 0 8 -5 8 -6 0 -11 -6 -11 -12
0 -10 -2 -10 -8 0 -11 16 -62 -1 -62 -20 0 -9 3 -8 10 2 7 11 10 12 10 2 0 -8
-9 -16 -20 -19 -11 -3 -17 -9 -14 -14 3 -5 -2 -6 -11 -2 -10 3 -21 0 -26 -8
-7 -11 -9 -11 -9 -1 0 7 -5 10 -10 7 -6 -4 -7 -11 -4 -17 4 -7 2 -8 -4 -4 -7
4 -12 1 -12 -6 0 -11 -2 -10 -9 0 -7 12 -17 -3 -25 -40 0 -3 -4 -9 -8 -13 -9
-9 -5 16 5 33 5 7 4 12 -2 12 -6 0 -11 -5 -11 -11 0 -5 -5 -7 -12 -3 -7 4 -8
3 -4 -5 9 -13 -18 -43 -29 -33 -5 4 -5 1 -1 -5 4 -7 -4 -24 -18 -40 -14 -15
-22 -31 -19 -37 4 -6 0 -5 -9 1 -15 13 -28 8 -28 -11 0 -6 5 -4 11 4 9 13 10
13 6 0 -2 -8 -14 -14 -26 -14 -17 1 -19 -1 -9 -13 6 -8 7 -13 2 -12 -23 4 -35
-3 -45 -25 -8 -16 -17 -22 -27 -19 -10 4 -13 2 -8 -5 3 -6 1 -14 -5 -18 -8 -4
-7 -9 2 -16 10 -7 7 -8 -9 -5 -18 4 -22 2 -18 -9 3 -9 2 -12 -5 -9 -12 8 -49
-22 -49 -39 0 -6 9 0 19 13 14 18 20 21 26 11 5 -9 4 -11 -3 -6 -7 4 -12 2
-12 -4 0 -6 -7 -18 -15 -26 -8 -9 -15 -11 -15 -5 0 6 -5 11 -11 11 -6 0 -9 -7
-6 -14 4 -11 1 -13 -10 -9 -10 4 -14 2 -10 -4 7 -11 -20 -28 -38 -24 -5 2 -7
-1 -2 -5 4 -4 0 -18 -8 -31 -9 -13 -13 -29 -9 -35 4 -6 3 -8 -3 -5 -6 4 -16
-7 -23 -23 -7 -16 -15 -29 -19 -28 -19 2 -31 -3 -29 -14 2 -7 -3 -12 -10 -10
-8 1 -11 -2 -8 -7 4 -5 -4 -20 -16 -32 -13 -12 -16 -19 -8 -15 8 4 4 -1 -10
-12 -13 -11 -29 -18 -34 -15 -5 3 -6 1 -2 -5 4 -7 2 -12 -4 -12 -6 0 -9 -4 -5
-9 3 -6 -1 -13 -8 -18 -7 -4 -21 -19 -30 -33 -10 -14 -20 -24 -22 -22 -14 7
-24 -2 -40 -38 -19 -41 -52 -70 -82 -70 -14 0 -15 -2 -5 -9 11 -7 11 -11 -2
-23 -8 -9 -13 -18 -10 -21 6 -6 -17 -57 -26 -57 -3 0 -15 -7 -26 -16 -18 -14
-18 -14 6 -3 l25 11 -25 -25 c-14 -13 -29 -22 -34 -19 -5 3 -7 1 -3 -4 8 -13
-46 -82 -60 -77 -8 3 -13 -4 -13 -16 0 -11 -5 -23 -11 -26 -12 -8 -33 -56 -30
-68 1 -5 -2 -6 -6 -4 -11 7 -33 -19 -25 -29 4 -5 0 -3 -10 4 -12 9 -18 10 -23
2 -4 -6 -4 -14 -1 -17 3 -3 0 -13 -7 -21 -10 -13 -9 -15 3 -8 9 4 8 2 -2 -7
-10 -8 -15 -17 -11 -20 3 -4 1 -7 -6 -7 -7 0 -11 -7 -8 -14 4 -10 1 -13 -9 -9
-9 3 -14 -2 -14 -17 0 -16 -4 -20 -15 -16 -9 3 -15 0 -15 -9 0 -8 -4 -15 -10
-15 -5 0 -9 -3 -8 -7 1 -5 -3 -18 -10 -29 -6 -12 -8 -25 -4 -29 4 -5 1 -5 -5
-1 -8 4 -13 1 -13 -8 0 -9 -5 -16 -11 -16 -5 0 -7 -5 -3 -12 5 -8 2 -9 -9 -5
-10 3 -17 2 -17 -2 0 -5 6 -12 13 -14 7 -3 6 -6 -5 -6 -9 -1 -20 -6 -24 -13
-5 -8 -2 -9 11 -4 18 6 18 6 2 -12 -9 -10 -17 -24 -17 -31 0 -7 -4 -10 -9 -6
-6 3 -8 -4 -6 -15 3 -18 -5 -25 -27 -21 -4 0 -5 -5 -2 -13 3 -8 0 -17 -7 -22
-8 -4 -10 -3 -5 4 4 7 5 12 2 12 -7 0 -66 -123 -66 -137 0 -6 -9 -13 -20 -16
-11 -3 -20 -12 -20 -21 0 -9 -5 -16 -11 -16 -6 0 -9 -7 -5 -15 3 -8 1 -15 -4
-15 -6 0 -10 -6 -10 -14 0 -7 -7 -19 -15 -26 -9 -7 -14 -19 -11 -26 3 -8 2
-13 -2 -13 -20 3 -33 -2 -27 -11 4 -6 -1 -7 -11 -3 -13 5 -16 2 -12 -9 4 -8
-2 -33 -12 -56 -10 -22 -16 -43 -12 -46 3 -3 0 -6 -6 -6 -6 0 -9 -9 -7 -19 2
-11 -6 -27 -17 -38 -12 -10 -18 -12 -14 -6 5 9 2 11 -8 7 -8 -3 -13 -14 -11
-25 2 -10 -1 -21 -6 -24 -5 -4 -7 -10 -4 -15 3 -5 1 -11 -5 -15 -5 -3 -10 -15
-10 -26 0 -11 -4 -17 -10 -14 -6 3 -7 -1 -4 -9 3 -9 1 -16 -5 -16 -6 0 -10 -5
-8 -11 1 -6 -4 -14 -12 -17 -9 -3 -11 0 -6 7 5 9 1 9 -14 0 -12 -8 -16 -16
-10 -20 8 -5 8 -9 0 -13 -6 -4 -9 -11 -6 -16 3 -5 1 -11 -5 -15 -6 -4 -8 -11
-5 -16 4 -5 1 -9 -5 -9 -6 0 -8 -5 -5 -11 4 -6 -1 -16 -11 -23 -13 -10 -14
-15 -5 -21 9 -5 3 -13 -17 -25 -23 -14 -30 -25 -28 -44 2 -14 -1 -26 -5 -26
-5 0 -8 -3 -7 -7 3 -17 -15 -63 -26 -63 -7 0 -6 -4 3 -9 9 -6 10 -11 2 -15 -6
-4 -9 -12 -6 -17 4 -5 1 -9 -6 -9 -7 0 -9 -3 -6 -6 4 -4 -2 -19 -13 -34 -11
-15 -16 -30 -13 -34 4 -4 0 -4 -9 -1 -12 5 -16 2 -13 -12 1 -10 -4 -28 -12
-41 -7 -12 -11 -27 -8 -32 3 -5 1 -11 -5 -15 -6 -4 -8 -10 -5 -14 2 -5 -3 -17
-11 -27 -9 -10 -12 -12 -8 -4 5 12 4 12 -6 3 -15 -13 -4 -36 13 -27 7 4 8 3 4
-2 -12 -12 -30 -12 -39 1 -5 6 -8 1 -9 -10 -1 -11 -3 -24 -4 -30 -3 -13 -5
-24 -5 -30 0 -3 -6 -20 -14 -39 -8 -19 -12 -37 -8 -40 3 -3 0 -6 -6 -6 -6 0
-9 -7 -5 -17 4 -11 3 -14 -5 -9 -12 7 -16 -5 -13 -32 1 -6 -3 -20 -9 -30 -11
-16 -11 -16 -6 1 3 9 1 17 -4 17 -5 0 -7 8 -4 18 4 12 3 13 -3 4 -5 -7 -9 -28
-8 -47 1 -19 -1 -35 -4 -35 -4 0 -7 -8 -8 -17 -2 -24 -7 -46 -14 -58 -4 -5 -5
-20 -4 -32 1 -13 -4 -23 -11 -23 -7 0 -10 -8 -7 -19 3 -10 -1 -22 -8 -26 -8
-6 -10 -4 -4 6 6 11 5 11 -5 2 -7 -6 -18 -9 -25 -7 -9 4 -12 -4 -11 -25 0 -17
4 -31 8 -31 5 0 8 -5 8 -11 0 -5 -4 -8 -8 -5 -5 3 -9 -1 -9 -9 0 -8 5 -15 11
-15 7 0 7 -3 -1 -8 -6 -4 -13 -16 -15 -27 -1 -11 -7 -23 -13 -27 -6 -5 -5 -8
2 -8 9 0 10 -6 3 -22 -13 -34 -23 -80 -23 -105 0 -12 -4 -20 -9 -17 -4 3 -5
10 -2 16 4 7 2 8 -5 4 -6 -4 -9 -11 -6 -16 3 -5 -3 -14 -12 -20 -15 -9 -14
-10 7 -5 16 4 20 3 12 -3 -7 -5 -10 -17 -6 -28 6 -18 6 -18 -9 1 -16 20 -16
20 -17 -2 0 -34 -1 -37 -13 -52 -10 -12 -9 -13 2 -6 11 6 13 4 6 -11 -4 -10
-8 -31 -9 -46 0 -16 -3 -28 -6 -28 -3 0 -6 -12 -6 -28 -1 -15 -4 -45 -8 -67
-4 -22 -8 -49 -10 -60 -2 -11 -4 -23 -5 -27 0 -5 -8 -8 -17 -8 -9 0 -12 -5 -8
-12 4 -7 3 -8 -4 -4 -9 5 -9 13 -2 26 7 13 7 21 -2 26 -7 5 -8 3 -3 -6 5 -8 4
-11 -3 -7 -5 4 -9 18 -7 32 1 14 -1 25 -4 25 -4 0 -6 14 -5 30 1 17 -1 30 -5
30 -4 0 -8 26 -9 58 -2 31 -4 78 -5 104 -1 27 -6 48 -11 48 -4 0 -6 9 -3 21 4
15 2 18 -7 10 -8 -7 -12 -5 -12 9 0 10 4 17 7 14 4 -2 11 0 14 6 4 6 3 9 -2 8
-4 -2 -19 5 -33 16 l-25 18 24 -7 c16 -5 21 -4 17 4 -4 6 -15 11 -24 12 -14 0
-13 2 3 9 19 8 19 9 -2 9 -26 1 -29 11 -10 30 10 11 10 13 0 7 -8 -4 -13 -2
-14 6 -4 60 -11 98 -23 117 -6 9 -5 12 2 8 6 -5 8 0 5 13 -3 11 -10 17 -17 13
-6 -4 -5 1 3 10 12 15 11 17 -3 17 -9 0 -21 12 -27 27 -6 15 -16 41 -24 58
-19 44 -28 69 -29 81 -1 6 -15 23 -32 37 -17 14 -37 45 -44 69 -8 24 -20 49
-27 56 -7 8 -10 19 -6 25 3 7 3 9 -2 5 -9 -9 -35 16 -35 34 0 10 -3 9 -10 -2
-6 -10 -10 -11 -10 -2 0 14 -42 58 -52 55 -5 -2 -8 4 -8 12 0 17 -34 37 -45
27 -5 -4 -5 -1 -1 6 4 7 2 12 -5 12 -7 0 -28 17 -48 38 -34 35 -60 52 -103 66
-19 6 -25 36 -7 36 5 0 8 4 5 9 -5 8 31 19 77 24 9 1 17 5 17 9 0 4 7 8 15 8
8 0 15 4 15 9 0 5 14 14 30 20 17 5 30 15 30 20 0 6 7 11 15 11 8 0 15 5 15
11 0 5 4 8 9 5 5 -4 11 -3 13 1 1 5 17 16 33 25 17 10 29 22 27 28 -1 7 2 9 7
5 6 -3 28 6 50 20 23 14 45 25 51 25 5 0 10 5 10 12 0 6 3 9 6 5 9 -9 66 22
60 32 -3 5 2 8 12 7 21 -1 122 62 122 75 0 6 4 8 8 5 5 -3 18 4 30 14 12 11
28 20 37 20 8 0 15 4 15 9 0 5 13 14 30 21 16 7 28 15 26 19 -3 4 5 8 16 8 11
1 25 8 31 16 7 8 30 27 52 42 22 16 45 34 50 40 6 6 28 24 50 40 22 16 50 40
61 52 12 12 24 20 27 17 3 -3 15 9 27 26 17 24 23 47 24 91 1 32 5 59 10 59 5
0 4 6 -1 13 -6 6 -9 24 -6 39 2 14 -1 29 -7 33 -7 4 -6 13 1 27 8 15 8 19 -1
13 -7 -4 -10 -2 -9 6 1 8 0 21 -3 29 -4 8 -9 24 -14 35 -4 11 -7 23 -6 27 1 4
-4 5 -12 2 -17 -7 -46 38 -46 71 0 17 -4 24 -12 19 -7 -5 -9 -2 -5 8 3 10 -10
32 -39 62 -24 26 -44 50 -44 54 0 5 -11 19 -25 32 -14 13 -25 20 -25 15 0 -4
-9 2 -20 15 -11 13 -20 20 -20 16 0 -4 -12 5 -27 19 -15 14 -35 25 -44 25 -8
0 -19 3 -23 7 -7 7 -24 11 -63 15 -13 1 -23 5 -23 8 0 3 -15 6 -32 7 -18 2
-34 7 -36 13 -2 6 -8 7 -14 4 -5 -3 -8 2 -6 12 2 15 -3 19 -25 18 -15 0 -27 3
-27 6 0 3 -8 6 -17 7 -47 2 -251 14 -273 16 -14 1 -31 6 -37 10 -7 5 -13 4
-13 -1 0 -13 -29 -5 -55 14 -17 12 -18 16 -5 24 8 5 18 6 24 3 5 -4 7 1 3 10
-3 10 -3 17 2 17 13 0 70 58 63 64 -3 3 2 6 12 6 10 0 14 -5 10 -12 -4 -7 -3
-8 5 -4 6 4 9 11 6 16 -3 4 3 14 12 21 12 10 14 10 9 2 -11 -20 8 -15 32 7 12
12 22 18 22 15 0 -3 14 1 30 10 17 9 30 20 30 26 0 6 5 7 10 4 6 -3 10 1 10 9
0 9 3 15 8 14 14 -4 52 13 52 23 0 6 5 7 10 4 6 -3 13 1 16 10 4 9 13 14 20
11 8 -3 14 -1 14 5 0 10 48 34 63 31 4 -1 7 2 7 6 0 5 20 17 45 28 25 10 45
24 45 32 0 7 5 10 11 6 6 -3 14 -2 18 3 13 19 71 54 81 48 5 -3 10 -2 10 4 0
6 11 13 24 17 14 3 27 12 30 21 3 8 10 11 16 8 5 -3 10 -1 10 4 0 6 3 10 7 9
5 -1 28 8 51 21 24 12 46 20 49 17 4 -3 12 2 20 12 10 11 12 12 8 2 -4 -10 -2
-9 8 3 8 9 19 17 25 17 6 0 15 8 21 17 5 10 13 15 16 11 4 -4 16 2 27 12 11
10 29 17 40 15 13 -3 22 2 25 15 3 11 9 17 14 14 5 -3 9 0 9 7 0 8 4 8 15 -1
13 -11 14 -10 9 6 -4 10 -4 16 1 12 4 -4 15 -2 23 5 13 10 14 9 8 -2 -5 -8 2
-6 19 5 16 10 33 19 39 21 60 13 112 46 100 64 -2 4 5 5 16 2 11 -3 20 0 20 6
0 6 5 11 11 11 5 0 7 -6 3 -12 -4 -7 2 -5 13 5 11 9 26 17 35 17 8 0 18 3 22
7 3 4 16 8 29 10 12 2 26 9 32 15 7 8 6 9 -4 3 -9 -5 -12 -4 -7 3 4 6 13 9 21
6 7 -3 23 4 34 15 13 13 21 16 21 9 0 -9 3 -9 9 1 9 14 21 18 66 24 11 1 22 5
25 9 3 3 12 8 20 10 8 2 21 11 28 21 7 9 17 15 22 12 5 -3 16 2 24 11 9 8 16
12 16 8 0 -3 6 -2 13 4 11 9 58 21 95 24 6 1 12 5 12 9 0 4 9 6 20 4 11 -2 19
-1 16 3 -2 4 2 13 10 20 8 7 14 8 14 2 0 -5 5 -10 11 -10 5 0 8 3 6 8 -3 4 1
13 9 20 11 10 14 10 14 0 0 -8 3 -9 8 -3 4 6 17 16 30 23 18 10 22 10 22 0 0
-9 3 -10 8 -2 4 6 17 10 30 9 12 -1 22 3 22 8 0 5 7 7 15 3 8 -3 15 -1 15 5 0
6 5 7 10 4 6 -3 10 -2 10 3 0 5 10 9 22 8 11 0 23 6 25 14 4 12 3 12 -5 1 -5
-7 -12 -9 -15 -4 -3 5 3 15 15 22 11 7 17 8 14 2 -4 -5 -2 -12 4 -16 5 -3 10
1 10 11 0 14 3 14 16 4 8 -8 14 -9 12 -4 -2 5 1 10 6 11 5 1 13 7 17 15 7 10
9 10 9 -2 0 -13 2 -13 9 -1 9 13 41 21 108 24 23 2 29 5 22 14 -18 21 23 34
46 15 11 -9 14 -10 8 -2 -14 16 -17 31 -5 29 4 -1 9 -1 12 1 3 1 15 3 28 6 16
3 21 0 17 -8 -4 -7 -1 -6 7 2 7 8 29 17 48 19 19 1 43 8 54 13 14 7 17 7 11
-2 -6 -9 -2 -9 15 0 12 6 24 9 27 6 3 -3 12 2 20 12 8 9 12 11 8 5 -4 -9 -1
-11 9 -7 9 3 14 9 11 14 -2 4 7 6 20 4 14 -1 24 1 22 4 -7 12 28 37 53 38 24
2 118 12 152 17 10 2 21 7 25 12 4 4 2 5 -4 1 -19 -10 -16 -1 4 15 9 8 14 9
10 3 -4 -7 0 -17 7 -23 12 -10 14 -8 9 11 -4 18 -3 20 6 8 8 -11 13 -12 22 -3
6 6 17 9 24 7 7 -3 16 -1 19 5 4 6 14 8 24 5 14 -5 14 -3 -2 6 -14 10 -20 10
-27 -1 -4 -7 -11 -10 -15 -6 -4 4 -14 1 -22 -6 -13 -9 -14 -9 -8 1 4 7 2 12
-4 12 -6 0 -8 5 -4 11 3 6 9 7 13 2 9 -13 30 -10 40 6 6 9 11 10 15 2 4 -6 12
-11 17 -11 6 0 8 3 6 8 -3 4 9 7 26 8 62 2 135 11 147 19 9 6 11 4 5 -5 -6
-10 -4 -11 6 -4 8 5 28 10 44 11 17 0 30 2 30 3 0 1 15 3 33 5 19 2 37 7 40
11 4 4 -3 5 -15 2 -25 -7 -36 12 -21 33 8 11 9 10 4 -3 -3 -12 0 -18 10 -18 8
0 13 4 10 9 -3 5 2 15 11 22 12 10 14 10 9 2 -7 -13 6 -18 17 -7 4 4 28 8 54
9 27 2 77 6 113 9 36 4 86 8 111 10 25 1 50 5 55 7 5 3 39 5 76 5 45 -1 63 2
58 9 -6 7 -2 11 10 11 10 0 16 -4 14 -8 -2 -4 5 -5 16 -3 11 2 20 -1 20 -6 0
-6 7 -3 16 5 8 9 20 16 25 16 5 0 9 5 9 11 0 7 -10 5 -25 -5 -14 -9 -25 -12
-25 -7 0 5 9 13 20 16 12 4 17 11 13 18 -3 7 3 4 14 -6 16 -14 23 -15 29 -6 5
8 3 10 -6 4 -9 -5 -11 -4 -6 4 6 9 11 9 21 1 10 -8 15 -7 19 2 5 10 7 10 12
-1 4 -8 9 -10 13 -3 3 6 54 14 111 17 58 4 132 8 165 10 33 2 104 5 158 6 54
2 100 6 103 11 9 14 16 9 11 -6z m1403 -56 c0 -5 -5 -10 -11 -10 -5 0 -7 5 -4
10 3 6 8 10 11 10 2 0 4 -4 4 -10z m-2160 -16 c0 -8 -19 -13 -24 -6 -3 5 1 9
9 9 8 0 15 -2 15 -3z m-524 -96 c4 -7 4 -10 -1 -6 -4 4 -14 3 -21 -3 -8 -7
-14 -6 -20 2 -4 7 -3 9 4 5 6 -3 13 -2 17 4 8 13 12 13 21 -2z m-235 -265 c13
-16 12 -17 -3 -4 -10 7 -18 15 -18 17 0 8 8 3 21 -13z m-444 -279 c-3 -3 -12
-4 -19 -1 -8 3 -5 6 6 6 11 1 17 -2 13 -5z m3489 -171 c-2 -10 -11 -20 -22
-22 -19 -3 -19 -3 0 18 23 26 25 26 22 4z m-3680 -15 c4 -7 3 -8 -4 -4 -7 4
-12 2 -12 -3 0 -6 -5 -11 -11 -11 -8 0 -8 5 1 15 15 18 17 18 26 3z m-26 -32
c0 -2 -7 -7 -16 -10 -8 -3 -12 -2 -9 4 6 10 25 14 25 6z m-3198 -58 c-15 -15
-42 -19 -42 -7 0 8 15 13 33 10 4 0 7 4 7 11 0 6 3 8 7 5 4 -4 1 -13 -5 -19z
m6795 -11 c0 -7 -9 -14 -20 -14 -19 -2 -19 -2 -1 12 11 8 19 15 20 15 0 0 1
-6 1 -13z m-6967 -292 c0 -7 -30 -13 -34 -7 -3 4 4 9 15 9 10 1 19 0 19 -2z
m-15 -45 c3 -5 1 -10 -4 -10 -6 0 -11 5 -11 10 0 6 2 10 4 10 3 0 8 -4 11 -10z
m9 -42 c-3 -5 -12 -4 -20 3 -19 16 -18 18 6 12 11 -3 17 -9 14 -15z m2730
-344 c3 -8 2 -12 -4 -9 -6 3 -10 10 -10 16 0 14 7 11 14 -7z m-1977 -159 c0
-8 -4 -15 -9 -15 -10 0 -11 14 -1 23 9 10 10 9 10 -8z m100 -40 c0 -13 -34
-17 -42 -4 -4 5 2 6 11 2 10 -4 15 -2 11 4 -3 5 0 10 7 10 7 0 13 -5 13 -12z
m38 5 c3 -5 1 -10 -4 -10 -6 0 -11 5 -11 10 0 6 2 10 4 10 3 0 8 -4 11 -10z
m524 -91 c-15 -9 -32 -2 -24 11 3 5 13 6 21 3 12 -4 13 -8 3 -14z m594 -945
c-7 -3 -9 -13 -6 -22 4 -14 3 -14 -5 -2 -12 16 -7 30 11 29 9 0 9 -2 0 -5z
m1512 -76 c-19 -11 -30 -5 -21 11 4 6 14 7 22 4 15 -5 14 -7 -1 -15z m-1866
-824 c3 -4 -2 -4 -11 -1 -10 3 -20 2 -23 -3 -4 -6 -1 -10 4 -10 6 0 11 -5 11
-12 0 -17 -23 7 -26 26 -2 15 32 14 45 0z m-379 -878 c0 -2 -7 -7 -16 -10 -8
-3 -12 -2 -9 4 6 10 25 14 25 6z m478 -856 c32 -30 27 -38 -5 -9 -16 13 -30
25 -32 27 -2 1 0 2 5 2 6 0 20 -9 32 -20z"/>
<path d="M7140 6690 c0 -5 7 -7 15 -4 8 4 15 8 15 10 0 2 -7 4 -15 4 -8 0 -15
-4 -15 -10z"/>
<path d="M4582 6594 c10 -10 20 -16 22 -13 3 3 -5 11 -17 18 -21 13 -21 12 -5
-5z"/>
<path d="M3900 6139 c0 -5 5 -7 10 -4 6 3 10 8 10 11 0 2 -4 4 -10 4 -5 0 -10
-5 -10 -11z"/>
<path d="M2816 6032 c-3 -5 1 -9 9 -9 8 0 12 4 9 9 -3 4 -7 8 -9 8 -2 0 -6 -4
-9 -8z"/>
<path d="M6511 5144 c0 -11 3 -14 6 -6 3 7 2 16 -1 19 -3 4 -6 -2 -5 -13z"/>
<path d="M2040 4674 c0 -5 7 -18 15 -28 8 -11 15 -16 15 -10 0 5 -7 18 -15 28
-8 11 -15 16 -15 10z"/>
<path d="M2146 4428 c3 -4 9 -8 15 -8 5 0 9 4 9 8 0 5 -7 9 -15 9 -8 0 -12 -4
-9 -9z"/>
<path d="M2154 4385 c0 -28 8 -24 13 5 2 11 -1 20 -5 20 -4 0 -8 -11 -8 -25z"/>
<path d="M5329 4383 c-13 -16 -12 -17 4 -4 16 13 21 21 13 21 -2 0 -10 -8 -17
-17z"/>
<path d="M2425 4170 c-4 -6 1 -7 11 -3 13 5 15 3 9 -7 -5 -9 -4 -11 4 -6 6 4
9 12 6 17 -8 12 -22 12 -30 -1z"/>
<path d="M2160 3600 c-9 -6 -10 -10 -3 -10 6 0 15 5 18 10 8 12 4 12 -15 0z"/>
<path d="M1523 2945 c0 -8 4 -12 9 -9 5 3 6 10 3 15 -9 13 -12 11 -12 -6z"/>
<path d="M3535 7170 c-3 -5 -1 -10 4 -10 6 0 11 5 11 10 0 6 -2 10 -4 10 -3 0
-8 -4 -11 -10z"/>
<path d="M954 4859 c-3 -6 -2 -15 3 -20 5 -5 9 -1 9 11 0 23 -2 24 -12 9z"/>
<path d="M1036 4188 c3 -5 10 -6 15 -3 13 9 11 12 -6 12 -8 0 -12 -4 -9 -9z"/>
<path d="M2435 1570 c-3 -6 1 -7 9 -4 18 7 21 14 7 14 -6 0 -13 -4 -16 -10z"/>
</g>
</svg>
